<svg width="44" height="32" viewBox="0 0 44 32" fill="none" xmlns="http://www.w3.org/2000/svg">
<path d="M7.7 25.42C6.54267 25.42 5.50667 25.168 4.592 24.664C4.144 24.4213 3.78 24.16 3.5 23.88C3.20133 24.2907 2.87467 24.608 2.52 24.832C2.352 24.944 2.16533 25.0467 1.96 25.14H1.26V20.38H2.38C2.62267 21.164 2.97733 21.892 3.444 22.564C4.43333 24.0013 5.66533 24.72 7.14 24.72C7.924 24.72 8.512 24.5333 8.904 24.16C9.31467 23.768 9.52 23.208 9.52 22.48C9.52 21.864 9.24 21.3507 8.68 20.94C8.13867 20.5107 7.28 19.988 6.104 19.372C5.096 18.868 4.27467 18.42 3.64 18.028C3.024 17.6173 2.492 17.1133 2.044 16.516C1.61467 15.9 1.4 15.1813 1.4 14.36C1.4 13.24 1.876 12.3347 2.828 11.644C3.79867 10.9347 5.28267 10.58 7.28 10.58C8.26933 10.58 9.184 10.8413 10.024 11.364C10.4347 11.6067 10.7893 11.8587 11.088 12.12C11.3307 11.784 11.6573 11.4667 12.068 11.168C12.3853 10.9813 12.572 10.8787 12.628 10.86H13.328V15.62H12.208C11.928 14.8173 11.5827 14.0987 11.172 13.464C10.2387 12.008 9.128 11.28 7.84 11.28C7.336 11.28 6.90667 11.4667 6.552 11.84C6.19733 12.2133 6.02 12.68 6.02 13.24C6.02 13.9493 6.31867 14.5467 6.916 15.032C7.51333 15.4987 8.41867 16.04 9.632 16.656C10.6213 17.16 11.4053 17.608 11.984 18C12.5813 18.3733 13.0853 18.84 13.496 19.4C13.9253 19.96 14.14 20.6133 14.14 21.36C14.14 24.0667 11.9933 25.42 7.7 25.42ZM21.4211 25.42C19.1064 25.42 17.2864 24.7667 15.9611 23.46C14.6544 22.1347 14.0011 20.3147 14.0011 18C14.0011 15.6853 14.6544 13.8747 15.9611 12.568C17.2864 11.2427 19.1064 10.58 21.4211 10.58C23.7358 10.58 25.5464 11.2427 26.8531 12.568C28.1784 13.8747 28.8411 15.6853 28.8411 18C28.8411 20.3147 28.1784 22.1347 26.8531 23.46C25.5464 24.7667 23.7358 25.42 21.4211 25.42ZM21.4211 24.86C22.1678 24.86 22.7931 24.3373 23.2971 23.292C23.8198 22.2467 24.0811 20.4827 24.0811 18C24.0811 15.5173 23.8198 13.7533 23.2971 12.708C22.7931 11.6627 22.1678 11.14 21.4211 11.14C20.6744 11.14 20.0398 11.6627 19.5171 12.708C19.0131 13.7533 18.7611 15.5173 18.7611 18C18.7611 20.4827 19.0131 22.2467 19.5171 23.292C20.0398 24.3373 20.6744 24.86 21.4211 24.86ZM31.9309 31.02C31.0909 31.02 30.4376 30.796 29.9709 30.348C29.5043 29.9 29.2709 29.284 29.2709 28.5C29.2709 27.7907 29.4576 27.24 29.8309 26.848C30.2229 26.456 30.7363 26.26 31.3709 26.26C31.5203 26.26 31.6696 26.2693 31.8189 26.288C31.9683 26.3253 32.0709 26.344 32.1269 26.344L32.4909 26.4V30.18C33.0323 30.0867 33.5083 29.788 33.9189 29.284C34.3296 28.78 34.7869 27.912 35.2909 26.68L35.8509 25.28L28.5709 11.84L27.1709 11.42V11H30.6709C31.6416 11 32.4069 11.2053 32.9669 11.616C33.5456 12.008 34.0403 12.596 34.4509 13.38L37.9509 19.848L40.8909 12.26L38.7909 11.42V11H43.9709V11.42L41.7309 12.26L36.1309 26.68C35.5336 28.2107 34.8989 29.312 34.2269 29.984C33.5549 30.6747 32.7896 31.02 31.9309 31.02Z" fill="#472B87"/>
</svg>
